<?xml version="1.0"?>
<svg xmlns="http://www.w3.org/2000/svg" width="596.698" height="810" viewBox="0 0 596.698 810">
  <path d="M587.903 801.155s-6.385-115.812-10.187-159.48c-4.87-55.97-17.722-61.563-36.675-74.47-32.405-22.06-110.768-44.58-110.768-44.58H300.94s-71.277 11.757-103.678 33.82l-52.751 47.112-16.65-80.965-36.738 2.45-29.943 19.993-11.54 11.41s23.25 132.988 28.988 142.57c6.548 10.94 12.241 23.7 32.46 22.16 25.377-1.93 96.797-46.932 96.797-46.932l12.39 126.912h367.628" fill="#fff"/>
  <path d="M379.477 744.27c-68.642-3.705-133.471-18.04-172-45.998 1.067.347 15.056 102.883 15.056 102.883h364.244s-3.786-82.307-6.96-123.593c-43.922 39.266-116.53 71.225-200.34 66.708" fill="#e0e6e8"/>
  <path d="M396.3 485.061s-.317 20.814 6.522 29.45l-36.081 42.382-38.346-42.382c6.837-8.636 6.52-29.45 6.52-29.45H396.3" fill="#fcd0b4"/>
  <path d="M337.979 491.757h56.54l3.702 17.253s-30.317 24.304-71.116 15.349l10.874-32.602" fill="#e59686"/>
  <path d="M307.386 565.337l57.863-12.954 34.432 7.218 24.499 5.736-57.217 184.273-59.577-184.273" fill="#fff"/>
  <path d="M346.536 677.735l11.552-80.857-19.179-39.183 27.599-5.312 26.11 5.312-19.17 39.183 14.047 83.906-20.987 60.59-19.972-63.639" fill="#5784cc"/>
  <path d="M346.198 678.753l11.89-81.875-19.179-39.183 27.599-5.312 26.11 5.312-19.17 39.183 13.031 81.198M358.088 596.878s6.029-6.232 15.36 0" fill="none" stroke="#24487a" stroke-width="4.061999999999999" stroke-linecap="round" stroke-linejoin="round" stroke-miterlimit="10"/>
  <path d="M447.95 528.046l43.151 31.912-38.81 14.294 35.978 31.038-134.846 184.15M281.703 526.343l-42.186 33.615 38.812 14.294-35.977 31.038 118.296 152.558" fill="none" stroke="#656263" stroke-width="6.4992" stroke-linecap="round" stroke-linejoin="round" stroke-miterlimit="10"/>
  <path d="M545.426 661.168s-14.583 37.26-27.217 56.216M440.794 670.125h59.563v99.795h-85.105v-64.91" fill="none" stroke="#656263" stroke-width="5.4159999999999995" stroke-linecap="round" stroke-linejoin="round" stroke-miterlimit="10"/>
  <path d="M334.915 485.061s.317 20.814-6.52 29.45M312.58 518.53s-82.621 18.745-113.158 38.363c-14.333 9.214-54.911 50.775-54.911 50.775" fill="none" stroke="#231f20" stroke-width="7.5824" stroke-linecap="round" stroke-linejoin="round" stroke-miterlimit="10"/>
  <path d="M365.249 554.521c-29.432-27.924-37.563-50.434-33.59-61.717 0 0-10.493 6.093-17.94 23.13-15.487 35.424 1.506 66.582 3.146 76.26 0 0 31.38-38.394 48.384-37.673" fill="#fff"/>
  <path d="M365.249 554.521c-29.432-27.924-37.563-50.434-33.59-61.717 0 0-10.493 6.093-17.94 23.13-15.487 35.424 1.506 66.582 3.146 76.26 0 0 31.38-38.394 48.384-37.673z" fill="none" stroke="#231f20" stroke-width="5.4159999999999995" stroke-linecap="round" stroke-linejoin="round" stroke-miterlimit="10"/>
  <path d="M331.66 492.804s-10.494 6.093-17.941 23.13c-15.487 35.424 1.506 66.582 3.146 76.26l49.643 149.18" fill="none" stroke="#231f20" stroke-width="6.4992" stroke-linecap="round" stroke-linejoin="round" stroke-miterlimit="10"/>
  <path d="M418.637 518.53s89.999 26.615 122.404 48.675c18.953 12.907 31.806 18.5 36.675 74.47 3.802 43.668 10.187 159.48 10.187 159.48M203.355 635.355c1.354 6.32 16.925 165.8 16.925 165.8M527.867 635.355c-1.354 6.32-19.866 165.8-19.866 165.8" fill="none" stroke="#231f20" stroke-width="7.5824" stroke-linecap="round" stroke-linejoin="round" stroke-miterlimit="10"/>
  <path d="M365.968 554.521c29.433-27.924 37.563-50.434 33.592-61.717 0 0 10.494 6.093 17.941 23.13 15.486 35.424-1.508 66.582-3.148 76.26 0 0-31.38-38.394-48.385-37.673" fill="#fff"/>
  <path d="M365.968 554.521c29.433-27.924 37.563-50.434 33.592-61.717 0 0 10.494 6.093 17.941 23.13 15.486 35.424-1.508 66.582-3.148 76.26 0 0-31.38-38.394-48.385-37.673z" fill="none" stroke="#231f20" stroke-width="5.4159999999999995" stroke-linecap="round" stroke-linejoin="round" stroke-miterlimit="10"/>
  <path d="M399.56 492.804s10.494 6.093 17.941 23.13c15.486 35.424.364 64.779-3.148 76.26L351.01 793.563" fill="none" stroke="#231f20" stroke-width="6.4992" stroke-linecap="round" stroke-linejoin="round" stroke-miterlimit="10"/>
  <path d="M385.094 786.25c0 4.041-3.28 7.312-7.314 7.312a7.315 7.315 0 01-7.316-7.312c0-4.04 3.28-7.311 7.316-7.311a7.314 7.314 0 017.314 7.311" fill="#e0e6e8"/>
  <path d="M385.094 786.25c0 4.041-3.28 7.312-7.314 7.312a7.315 7.315 0 01-7.316-7.312c0-4.04 3.28-7.311 7.316-7.311a7.314 7.314 0 017.314 7.311z" fill="none" stroke="#231f20" stroke-width="5.4159999999999995" stroke-miterlimit="10"/>
  <path d="M117.615 522.592c11.964-4.02 12.962 4.094 12.962 4.094s20.048 121.272 19.729 119.804" fill="none" stroke="#231f20" stroke-width="7.5824" stroke-linecap="round" stroke-linejoin="round" stroke-miterlimit="10"/>
  <path d="M66.76 541.887s-19.56 9.146-18.2 20.428c-.147 1.154 23.435 118.567 28.52 132.78 9.865 27.577 27.397 29.097 43.486 24.11 34.563-10.72 86.927-44.087 86.927-44.087" fill="none" stroke="#231f20" stroke-width="7.5824" stroke-linecap="round" stroke-linejoin="round" stroke-miterlimit="10"/>
  <path d="M67.45 568.343l-4.256-41.488s-31.541-10.705-37.69-52.71c0 0-15.962-22.87-16.675-32.183-.8-10.335 11.323-19.115 21.76-16.005 0 0 6.562-19.513 24.429-17.115 0 0 8.712-15.99 26.233-9.59 0 0-3.495-56.175-3.3-74.221.197-18.047 20.902-17.634 23.399-3.709 1.843 10.278 18.127 117.64 18.127 117.64l.196 1.681c9.683 5.645 13.72 11.875 10.904 29.361-2.771 17.141-15.304 38.308-15.304 38.308l2.708 39.06-26.858 15.1-23.674 5.87" fill="#fcd0b4"/>
  <path d="M29.04 477.392s8.636 8.6 16.394 5.909c7.754-2.694 10.083-10.363 10.083-10.363s8.727 1.583 13.548-2.02c4.824-3.607 11.622-12.74 11.622-12.74l8.297 6.732s-18.046 19.379-18.308 28.387c0 0-33.307.36-37.394 1.179-4.096.831-4.242-17.084-4.242-17.084" fill="#da907b"/>
  <path d="M67.45 568.343l-4.256-41.488s-31.541-10.705-37.69-52.71c0 0-15.962-22.87-16.675-32.183-.8-10.335 11.323-19.115 21.76-16.005 0 0 6.562-19.513 24.429-17.115 0 0 8.712-15.99 26.233-9.59 0 0-3.495-56.175-3.3-74.221.197-18.047 20.902-17.634 23.399-3.709 1.843 10.278 18.127 117.64 18.127 117.64l.196 1.681c9.683 5.645 13.72 11.875 10.904 29.361-2.771 17.141-15.304 38.308-15.304 38.308l2.708 39.06" fill="none" stroke="#231f20" stroke-width="7.5824" stroke-linecap="round" stroke-linejoin="round" stroke-miterlimit="10"/>
  <path d="M119.673 440.643c-18.814-10.958-47.263-14.703-50.185-3.913-2.917 10.79 16.164 26.462 28.212 30.154M88.916 464.127s-24.283 22.04-18.304 42.28M81.251 399.251l9.246 30.444M55.035 408.63l14.107 28.174M25.19 473.897s9.221 8.879 15.465 9.567c8.631.952 14.799-3.432 14.83-11.679 0 0 14.492 5.243 23.91-11.132M30.589 425.957s14.242 37.345 26.483 45.51" fill="none" stroke="#231f20" stroke-width="6.4992" stroke-linecap="round" stroke-linejoin="round" stroke-miterlimit="10"/>
  <path d="M48.56 562.315s3.73 7.447 23.03 5.615c24.08-2.285 57.329-23.646 58.987-36.558" fill="none" stroke="#231f20" stroke-width="7.5824" stroke-linecap="round" stroke-linejoin="round" stroke-miterlimit="10"/>
  <path d="M286.262 762.485c1.185 4.441-2.433 9.305-8.103 10.864-5.66 1.549-11.213-.802-12.404-5.249-1.189-4.434 2.44-9.294 8.099-10.842 5.659-1.549 11.217.802 12.408 5.227" fill="#403c3d"/>
  <path d="M286.262 762.485c1.185 4.441-2.433 9.305-8.103 10.864-5.66 1.549-11.213-.802-12.404-5.249-1.189-4.434 2.44-9.294 8.099-10.842 5.659-1.549 11.217.802 12.408 5.227z" fill="none" stroke="#231f20" stroke-width="4.061999999999999" stroke-miterlimit="10"/>
  <path d="M307.57 756.782c1.192 4.447 6.745 6.774 12.405 5.225 5.66-1.553 9.287-6.395 8.092-10.842-1.185-4.434-6.738-6.785-12.402-5.226-5.655 1.542-9.283 6.406-8.094 10.843" fill="#403c3d"/>
  <path d="M307.57 756.782c1.192 4.447 6.745 6.774 12.405 5.225 5.66-1.553 9.287-6.395 8.092-10.842-1.185-4.434-6.738-6.785-12.402-5.226-5.655 1.542-9.283 6.406-8.094 10.843z" fill="none" stroke="#231f20" stroke-width="4.061999999999999" stroke-miterlimit="10"/>
  <path d="M482.387 619.323c-6.205-86.501-62.48-153.212-125.463-148.69-57.122 4.089-100.397 65.415-103.32 141.336-29.823 10.934-44.958 51.64-33.808 93.274 2.93 10.908 19.827 54.994 37.852 65.339 2.973 1.695 5.91 2.5 8.776 2.403a13.244 13.244 0 003.135-.48l-2.856-10.443c-.962.25-2.19-.027-3.66-.882-13.205-7.582-29.534-46.622-32.788-58.749-10.058-37.559 3.328-74.026 29.837-81.288 9.922-2.72 20.617-1.025 30.93 4.897 16.217 9.292 29.418 27.99 35.31 50.005 5.437 20.272 8.145 67.436-1.735 70.148l2.856 10.447c25.934-7.11 9.542-82.647 9.34-83.406-6.62-24.734-21.716-45.89-40.38-56.598-10.443-5.983-21.322-8.42-31.868-7.267 3.67-68.925 42.319-124.026 93.172-127.676 57.016-4.09 108.099 58.004 113.863 138.41 3.857 53.824-13.582 104.627-45.517 132.572l7.056 8.45c34.495-30.194 53.373-84.532 49.268-141.802" fill="#7b7979"/>
  <path d="M482.387 619.323c-6.205-86.501-62.48-153.212-125.463-148.69-57.122 4.089-100.397 65.415-103.32 141.336-29.823 10.934-44.958 51.64-33.808 93.274 2.93 10.908 19.827 54.994 37.852 65.339 2.973 1.695 5.91 2.5 8.776 2.403a13.244 13.244 0 003.135-.48l-2.856-10.443c-.962.25-2.19-.027-3.66-.882-13.205-7.582-29.534-46.622-32.788-58.749-10.058-37.559 3.328-74.026 29.837-81.288 9.922-2.72 20.617-1.025 30.93 4.897 16.217 9.292 29.418 27.99 35.31 50.005 5.437 20.272 8.145 67.436-1.735 70.148l2.856 10.447c25.934-7.11 9.542-82.647 9.34-83.406-6.62-24.734-21.716-45.89-40.38-56.598-10.443-5.983-21.322-8.42-31.868-7.267 3.67-68.925 42.319-124.026 93.172-127.676 57.016-4.09 108.099 58.004 113.863 138.41 3.857 53.824-13.582 104.627-45.517 132.572l7.056 8.45c34.495-30.194 53.373-84.532 49.268-141.802z" fill="none" stroke="#231f20" stroke-width="4.061999999999999" stroke-linecap="round" stroke-linejoin="round" stroke-miterlimit="10"/>
  <path d="M469.973 744.308c.635 18.268-13.66 33.59-31.925 34.218-18.275.635-33.586-13.665-34.22-31.93-.625-18.27 13.666-33.58 31.935-34.208 18.268-.635 33.585 13.652 34.21 31.92" fill="#a7a5a6"/>
  <path d="M469.973 744.308c.635 18.268-13.66 33.59-31.925 34.218-18.275.635-33.586-13.665-34.22-31.93-.625-18.27 13.666-33.58 31.935-34.208 18.268-.635 33.585 13.652 34.21 31.92z" fill="none" stroke="#231f20" stroke-width="5.4159999999999995" stroke-miterlimit="10"/>
  <path d="M459.32 744.676c.424 12.38-9.266 22.77-21.642 23.192-12.387.427-22.765-9.267-23.194-21.643-.428-12.38 9.262-22.762 21.65-23.185 12.376-.428 22.76 9.262 23.187 21.636" fill="#7b7979"/>
  <path d="M459.32 744.676c.424 12.38-9.266 22.77-21.642 23.192-12.387.427-22.765-9.267-23.194-21.643-.428-12.38 9.262-22.762 21.65-23.185 12.376-.428 22.76 9.262 23.187 21.636z" fill="none" stroke="#231f20" stroke-width="2.7079999999999997" stroke-miterlimit="10"/>
  <path d="M186.853 266.259s-33.537-131.517 39.001-183.267c0 0 11.234-24.372 62.365-53.299C353.905-7.46 444.797 7.797 458.73 52.912c0 0 38.658 6.31 64.356 43.128 24.55 35.16 35.16 69.644 23.004 169.165l.173 46.089-351.151 26.526-8.258-71.561" fill="#291d16"/>
  <path d="M225.854 99.105s11.234-24.372 62.365-53.294C353.905 8.652 444.797 23.915 458.73 69.03c0 0 38.658 6.31 64.356 43.128 16.65 23.84 26.874 47.4 27.946 91.108 1.23-54.35-9.36-80.607-27.946-107.226-25.698-36.818-64.357-43.128-64.357-43.128C444.797 7.797 353.905-7.46 288.22 29.693c-51.13 28.927-62.365 53.3-62.365 53.3-40.331 28.775-47.853 82.204-46.6 123.977 1.146-38.61 11.301-82.675 46.6-107.865" fill="#806a5d"/>
  <path d="M546.089 281.322l.11 29.978.063-.006-.116-30.48c-.021.17-.036.339-.057.508" fill="#644a3f"/>
  <path d="M525.455 283.135s32.687-26.208 44.965 14.89c14.104 47.214-33.17 98.687-54.623 102.714" fill="#fcd0b4"/>
  <path d="M525.455 283.135s32.687-26.208 44.965 14.89c14.104 47.214-33.17 98.687-54.623 102.714" fill="none" stroke="#231f20" stroke-width="7.5824" stroke-linecap="round" stroke-linejoin="round" stroke-miterlimit="10"/>
  <path d="M546.969 343.727c-6.721 15.291-19.455 24.467-28.45 20.517-8.995-3.952-10.835-19.555-4.108-34.844 6.728-15.282 19.464-24.463 28.455-20.507 8.994 3.952 10.824 19.554 4.103 34.834" fill="#e59686"/>
  <path d="M556.257 297.4s-17.357-7.633-30.802 21.997" fill="none" stroke="#231f20" stroke-width="7.5824" stroke-linecap="round" stroke-linejoin="round" stroke-miterlimit="10"/>
  <path d="M205.8 283.135s-32.688-26.208-44.967 14.89c-14.103 47.214 33.173 98.687 54.625 102.714" fill="#fcd0b4"/>
  <path d="M205.8 283.135s-32.688-26.208-44.967 14.89c-14.103 47.214 33.173 98.687 54.625 102.714" fill="none" stroke="#231f20" stroke-width="7.5824" stroke-linecap="round" stroke-linejoin="round" stroke-miterlimit="10"/>
  <path d="M178.83 342.844c6.722 15.28 19.46 24.468 28.45 20.516 8.993-3.957 10.831-19.549 4.104-34.838-6.717-15.282-19.462-24.468-28.45-20.507-8.99 3.952-10.82 19.538-4.103 34.83" fill="#e59686"/>
  <path d="M174.99 297.4s17.366-7.633 30.81 21.997" fill="none" stroke="#231f20" stroke-width="7.5824" stroke-linecap="round" stroke-linejoin="round" stroke-miterlimit="10"/>
  <path d="M497.958 131.91c40.55 108.667 34.976 254.072-6.273 309.227-31.846 42.58-74.751 66.984-126.055 66.984-51.31 0-94.216-24.403-126.06-66.984-43.29-57.88-46.889-218.087.445-326.271l.899-1.149c40.27-27.86 101.708-29.701 101.708-29.701s-38.208 18.517-32.696 24.567c5.722 6.283 42.333 9.402 76.046-.233 48.655-13.903 60.813-33.78 60.813-33.78s3.083 41.027 52.743 58.017" fill="#fcd0b4"/>
  <path d="M497.958 131.91c40.55 108.667 34.976 254.072-6.273 309.227-31.846 42.58-74.751 66.984-126.055 66.984-51.31 0-94.216-24.403-126.06-66.984-43.29-57.88-46.889-218.087.445-326.271l.899-1.149c40.27-27.86 101.708-29.701 101.708-29.701s-38.208 18.517-32.696 24.567c5.722 6.283 42.333 9.402 76.046-.233 48.655-13.903 60.813-33.78 60.813-33.78s3.083 41.027 52.743 58.017M206.615 274.827h34.707" fill="none" stroke="#231f20" stroke-width="7.5824" stroke-linecap="round" stroke-linejoin="round" stroke-miterlimit="10"/>
  <path d="M268.85 311.29c0 7.828-12.503 14.174-27.93 14.174-15.425 0-27.95-6.346-27.95-14.174 0-7.828 12.525-14.16 27.95-14.16 15.427 0 27.93 6.332 27.93 14.16M513.893 311.29c0 7.828-12.507 14.174-27.937 14.174-15.423 0-27.94-6.346-27.94-14.174 0-7.828 12.517-14.16 27.94-14.16 15.43 0 27.937 6.332 27.937 14.16" fill="#f6807f"/>
  <path d="M321.064 271.611c0 19.823-12.662 35.886-28.275 35.886-15.614 0-28.265-16.063-28.265-35.886 0-19.823 12.651-35.893 28.265-35.893 15.613 0 28.275 16.07 28.275 35.893" fill="#fff"/>
  <path d="M315.034 273.43c0 10.667-6.594 19.337-14.735 19.337-8.14 0-14.746-8.67-14.746-19.336 0-10.681 6.605-19.325 14.746-19.325s14.735 8.644 14.735 19.325" fill="#231f20"/>
  <path d="M263.92 264.915s3.005-21.896 23.46-27.983c23.93-7.117 30.067 17.038 30.067 17.038s-12.461-9.266-27.313-5.48c-13.995 3.568-26.213 16.425-26.213 16.425" fill="#deedfa"/>
  <path d="M317.447 253.97s-6.136-24.155-30.068-17.038c-20.454 6.087-23.458 27.983-23.458 27.983" fill="none" stroke="#231f20" stroke-width="7.5824" stroke-linecap="round" stroke-linejoin="round" stroke-miterlimit="10"/>
  <path d="M315.37 263.14c0 2.516-2.024 4.557-4.513 4.557-2.49 0-4.513-2.041-4.513-4.557 0-2.513 2.022-4.555 4.513-4.555 2.49 0 4.512 2.042 4.512 4.555M410.196 271.611c0 19.823 12.651 35.886 28.264 35.886 15.62 0 28.27-16.063 28.27-35.886 0-19.823-12.65-35.893-28.27-35.893-15.613 0-28.264 16.07-28.264 35.893" fill="#fff"/>
  <path d="M416.215 273.43c0 10.667 6.6 19.337 14.735 19.337 8.145 0 14.746-8.67 14.746-19.336 0-10.681-6.6-19.325-14.746-19.325-8.135 0-14.735 8.644-14.735 19.325" fill="#231f20"/>
  <path d="M467.335 264.915s-3.011-21.896-23.459-27.983c-23.938-7.117-30.073 17.038-30.073 17.038s12.461-9.266 27.312-5.48c14.002 3.568 26.22 16.425 26.22 16.425" fill="#deedfa"/>
  <path d="M413.803 253.97s6.135-24.155 30.073-17.038c20.448 6.087 23.459 27.983 23.459 27.983" fill="none" stroke="#231f20" stroke-width="7.5824" stroke-linecap="round" stroke-linejoin="round" stroke-miterlimit="10"/>
  <path d="M435.456 263.14c0 2.516 2.02 4.557 4.517 4.557 2.486 0 4.506-2.041 4.506-4.557 0-2.513-2.02-4.555-4.506-4.555-2.496 0-4.517 2.042-4.517 4.555" fill="#fff"/>
  <path d="M349.837 271.563s17.37-4.902 30.291 1.868M185.975 271.637s-32.659-136.895 39.88-188.645c0 0 11.233-24.372 62.364-53.299C353.905-7.46 444.797 7.797 458.73 52.912c0 0 38.658 6.31 64.356 43.128 24.55 35.16 35.16 79.084 23.004 178.6" fill="none" stroke="#231f20" stroke-width="7.5824" stroke-linecap="round" stroke-linejoin="round" stroke-miterlimit="10"/>
  <path d="M338.106 198.137c-2.328-5.422-7.62-11.71-14.768-16.552-7.097-4.907-16.046-8.422-24.763-9.575-8.716-1.235-16.999.005-22.468 1.847-11.174 3.596-18.966 11.265-22.753 17.31-3.882 6.152-4.496 10.74-2.952 11.741 3.402 2.297 13.699-10.626 30.006-15.847 4.046-1.36 10.053-2.643 16.95-2.318 6.87.27 14.503 2.193 21.04 5.313 6.57 3.07 11.929 7.28 15.117 10.924 2.39 2.838 5.701 1.338 4.59-2.843" fill="#291d16"/>
  <path d="M338.106 198.137c-2.328-5.422-7.62-11.71-14.768-16.552-7.097-4.907-16.046-8.422-24.763-9.575-8.716-1.235-16.999.005-22.468 1.847-11.174 3.596-18.966 11.265-22.753 17.31-3.882 6.152-4.496 10.74-2.952 11.741 3.402 2.297 13.699-10.626 30.006-15.847 4.046-1.36 10.053-2.643 16.95-2.318 6.87.27 14.503 2.193 21.04 5.313 6.57 3.07 11.929 7.28 15.117 10.924 2.39 2.838 5.701 1.338 4.59-2.843z" fill="none" stroke="#291d16" stroke-width="4.061999999999999" stroke-miterlimit="10"/>
  <path d="M393.15 198.137c2.327-5.422 7.62-11.71 14.76-16.552 7.099-4.907 16.048-8.422 24.764-9.575 8.723-1.235 17 .005 22.475 1.847 11.174 3.596 18.96 11.265 22.747 17.31 3.886 6.152 4.495 10.74 2.951 11.741-3.396 2.297-13.699-10.626-30-15.847-4.05-1.36-10.053-2.643-16.952-2.318-6.87.27-14.496 2.193-21.038 5.313-6.575 3.07-11.928 7.28-15.118 10.924-2.395 2.838-5.706 1.338-4.589-2.843" fill="#291d16"/>
  <path d="M393.15 198.137c2.327-5.422 7.62-11.71 14.76-16.552 7.099-4.907 16.048-8.422 24.764-9.575 8.723-1.235 17 .005 22.475 1.847 11.174 3.596 18.96 11.265 22.747 17.31 3.886 6.152 4.495 10.74 2.951 11.741-3.396 2.297-13.699-10.626-30-15.847-4.05-1.36-10.053-2.643-16.952-2.318-6.87.27-14.496 2.193-21.038 5.313-6.575 3.07-11.928 7.28-15.118 10.924-2.395 2.838-5.706 1.338-4.589-2.843z" fill="none" stroke="#291d16" stroke-width="4.061999999999999" stroke-miterlimit="10"/>
  <path d="M356.184 295.786s4.03 15.281 1.343 31.016M364.509 318.106s-16.227 20.285-16.636 27.584c-.406 7.299 13.335 19.468 13.335 19.468" fill="none" stroke="#231f20" stroke-width="7.5824" stroke-linecap="round" stroke-linejoin="round" stroke-miterlimit="10"/>
  <path d="M350.25 275.17c0 30.08-24.384 54.456-54.467 54.456-30.074 0-54.461-24.376-54.461-54.456 0-30.082 24.387-54.465 54.46-54.465 30.084 0 54.467 24.383 54.467 54.465z" fill="none" stroke="#231f20" stroke-width="8.6656" stroke-linecap="round" stroke-linejoin="round" stroke-miterlimit="10"/>
  <path d="M524.64 274.827h-34.706" fill="none" stroke="#231f20" stroke-width="7.5824" stroke-linecap="round" stroke-linejoin="round" stroke-miterlimit="10"/>
  <path d="M381.01 275.17c0 30.08 24.383 54.456 54.457 54.456 30.084 0 54.467-24.376 54.467-54.456 0-30.082-24.383-54.465-54.467-54.465-30.074 0-54.456 24.383-54.456 54.465z" fill="none" stroke="#231f20" stroke-width="8.6656" stroke-linecap="round" stroke-linejoin="round" stroke-miterlimit="10"/>
  <path d="M363.616 393.29c40.18 0 60.865-7.953 60.865-7.953.35 18.881-5.288 94.065-58.851 94.065-53.561 0-59.206-75.184-58.853-94.065 0 0 16.673 7.952 56.839 7.952" fill="#eb4b7c"/>
  <path d="M366.324 406.487c20.614 0 39.562 6.632 54.816 16.434 2.881-14.192 3.453-31.2 3.34-37.584 0 0-20.684 7.952-60.864 7.952-40.166 0-56.839-7.952-56.839-7.952-.124 6.514.472 23.864 3.502 38.37 14.64-10.983 34.878-17.22 56.045-17.22" fill="#c2434f"/>
  <path d="M363.616 393.29c40.18 0 60.865-7.953 60.865-7.953.35 18.881-5.288 94.065-58.851 94.065-53.561 0-59.206-75.184-58.853-94.065 0 0 16.673 7.952 56.839 7.952z" fill="none" stroke="#231f20" stroke-width="6.4992" stroke-linecap="round" stroke-linejoin="round" stroke-miterlimit="10"/>
</svg>
